<?xml version="1.0" encoding="UTF-8"?>
<svg id="Camada_1" data-name="Camada 1" xmlns="http://www.w3.org/2000/svg" viewBox="548.96 480.24 721.04 1331.99">
  <defs>
    <style>
      .cls-1 {
        fill: #1c99a7;
      }
    </style>
  </defs>
  <path class="cls-1" d="M1070.57,618.71c-.14,32.2-49.11,32.2-49.25,0,.14-32.2,49.1-32.2,49.25,0ZM1167.9,682.12c-23.94,2.34-48.29-5.72-65.96-20.43-3.7-3.08-5.99-1.77-5.16,2.96,4.29,24.28,11.92,47.4,22.4,68.9,1.4,2.88,5.12,4.49,8.15,3.46,22.65-7.65,39.75-27.34,43.72-51.44.34-2.07-1.08-3.66-3.16-3.45ZM1216.04,558.76c-22.02-30.59-94.04-59.09-101.59-44.63-22.26,39.81-40.95,140.4,45.18,143.71,5.4.12,11.74-1.01,17.04-1.83,0,0,0,0,0,0,2.59.75,9.33,14.07,11.49,21.86,10.89,39.31-11.55,82.06,27.03,38.32h0c36.79-45.33,40.72-107.41.84-157.43ZM974.78,1203.61l55.98,96.97h50.81v35.9h-266.97c-13.98,36.26-182.36,469.58-238.99,449.46-11.81-4.2,80.66-344.94,115.55-452.87,5.09-15.75,22.18-32.63,38.05-37.29,135.67-39.84,278.76-170.13,269.81-336.66h0s-24.25,0-24.25,0h0c14.44,177.94-187.08,333.26-341.95,324.36,0,0-27.02-1.1-22.52-9.73,21.96-42.96,164.95-318.82,281.09-446.81,11.61-12.8,15.18-36.28,8.26-52.11-.04-.09-.08-.19-.12-.28-11.83-26.36-14.26-46.46-14.07-74.85.02-3.01-2.38-4.94-5.31-4.25-14.55,3.47-51.52,9.54-65.49-15.53-1.1-2-1.04-4.94.98-6.05,106.66-58.95,127.88-168.85,272.33-168.01,1.56,0,2.3,1.17,1.64,2.58-6.41,13.73-11.95,29.68-14.81,46.22-.2,1.13-1.1,1.98-2.24,2.11-34.8,3.92-65.22,21.15-87.02,47.43-11.15,13.44-23.17,39.22-23.25,45.65-.08,6.43,21.13-5.5,20.19,3.58-8.09,134.5,153.31,128.95,183.09,227.17,28.26,98.02-85.73,228.06-190.81,323.04ZM947.33,1227.85c-6.92,5.97-13.74,11.75-20.41,17.33l31.98,55.4h30.42l-41.99-72.73ZM898.77,1268.22c-15.48,12.42-29.57,23.31-41.54,32.35h60.22l-18.68-32.35Z"/>
</svg>