<?xml version="1.0" encoding="UTF-8"?>
<svg id="Camada_1" data-name="Camada 1" xmlns="http://www.w3.org/2000/svg" viewBox="514.55 445.91 789.76 1401.84">
  <defs>
    <style>
      .cls-1 {
        fill: #fdffff;
      }
    </style>
  </defs>
  <path class="cls-1" d="M926.85,1245.95l32.04,55.49h30.47l-42.06-72.85c-6.94,5.98-13.76,11.77-20.45,17.36Z"/>
  <path class="cls-1" d="M857.05,1301.44h60.32l-18.71-32.41c-15.5,12.44-29.62,23.35-41.61,32.41Z"/>
  <path class="cls-1" d="M1242.33,538.71c-24.37-33.08-75.97-65.84-155.79-65.84-103.96,0-153.14,50.9-200.7,100.13-25.09,25.96-51.01,52.79-86.16,72.22-17.48,9.65-23.61,32.23-13.68,50.32,11.76,21.12,33.21,33.48,60.88,35.3,3.94.26,7.59,3.58,8.15,7.49,2.43,16.98,7.05,32.37,14.7,49.43l.19.44c1.85,4.14.3,13.61-2.73,16.94-117.75,129.76-259.17,401.29-286.33,454.41-5.76,11.06-5.53,24.06.65,34.74,2.99,5.17,12.1,20.91,49.2,22.48,4.67.27,28.67-1.76,24.64,13.55-11.33,43.05-49.68,177.87-71.51,261.18-14.06,53.63-25.28,99.15-32.45,131.63-4.08,18.5-6.93,33.12-8.45,43.44-.95,6.45-2.39,16.2-.53,25.95,2.41,12.64,9.9,21.53,21.67,25.71,4.77,1.7,9.8,2.56,14.92,2.56,27.81,0,53.34-23.52,88.12-81.18,21.85-36.24,47.62-86.68,76.59-149.92,40.65-88.75,77.42-180.47,92.87-219.77h277.69v-101h-64.63l-33.66-58.3c145.74-136.39,206.69-250.39,181.18-338.88l-.12-.39c-9.46-31.21-34.81-64.23-51.58-86.09-2.17-2.83-4.44-5.79-6.54-8.58-3.46-4.61-.58-11.4,5.16-11.82,16.72-1.21,54.81,14.74,85.79-16.24l10.96-12.02c23.11-28.47,35.73-61.97,36.48-96.87.78-36.13-11.32-71.05-35.01-101.02ZM1165.92,880.75c28.3,98.18-85.87,228.43-191.12,323.56l56.08,97.13h50.89v35.96h-267.4c-14,36.32-182.66,470.35-239.38,450.19-11.83-4.21,80.82-345.63,115.76-453.67,4.17-12.91,18.23-26.57,31.33-30.09,131.11-35.26,297.9-168.1,277.02-344.42,0,0-25.7,0-25.71,0,14.47,178.23-185.98,333.81-341.1,324.88,0,0-27.06-1.1-22.55-9.75,22-43.03,165.22-319.35,281.55-447.54,11.63-12.82,15.21-36.33,8.28-52.19-.04-.09-.08-.19-.12-.28-11.84-26.41-14.29-46.54-14.09-74.97.02-3.02-2.38-4.95-5.31-4.25-14.57,3.47-51.6,9.55-65.59-15.55-1.1-2-1.04-4.95.98-6.06,106.83-59.05,128.09-169.13,272.79-168.29,1.56,0,2.29,1.17,1.63,2.58-6.42,13.75-11.97,29.74-14.84,46.3-.18,1.05-1.19,2-2.25,2.12-34.85,3.92-65.32,21.19-87.16,47.5-11.17,13.47-23.21,39.29-23.29,45.73s21.17-5.51,20.22,3.58c-8.1,134.72,153.56,129.17,183.39,227.54ZM1070.74,618.45c-.14,32.25-49.19,32.26-49.33,0,.14-32.25,49.18-32.26,49.33,0ZM1171.39,685.43c-3.97,24.14-21.11,43.86-43.79,51.53-3.04,1.03-6.76-.59-8.17-3.47-10.49-21.53-18.14-44.69-22.44-69.01-.84-4.74,1.46-6.05,5.16-2.97,17.7,14.73,42.09,22.81,66.06,20.46,2.09-.2,3.5,1.39,3.16,3.46ZM1215.61,716.1h-.01c-38.65,43.81-16.16.99-27.07-38.39-2.16-7.81-8.91-21.14-11.51-21.89,0,0,0,0,0,0-5.31.82-11.67,1.96-17.07,1.84-86.26-3.32-67.54-104.08-45.25-143.95,7.57-14.48,79.7,14.06,101.76,44.7,39.94,50.1,36.01,112.29-.85,157.69Z"/>
</svg>